<mxfile host="app.diagrams.net" modified="2023-11-30T05:31:56.422Z" agent="Mozilla/5.0 (Windows NT 10.0; Win64; x64; rv:109.0) Gecko/20100101 Firefox/119.0" etag="fCArJewr0ytKAeogPqi1" version="22.1.5" type="device">
  <diagram name="Page-1" id="2YBvvXClWsGukQMizWep">
    <mxGraphModel dx="1900" dy="1658" grid="1" gridSize="10" guides="1" tooltips="1" connect="1" arrows="1" fold="1" page="1" pageScale="1" pageWidth="850" pageHeight="1100" math="0" shadow="0">
      <root>
        <mxCell id="0" />
        <mxCell id="1" parent="0" />
        <mxCell id="ZtMZNj4k6sN_AE68zlNE-79" value="" style="rounded=0;whiteSpace=wrap;html=1;strokeColor=none;" parent="1" vertex="1">
          <mxGeometry x="-200" y="-70" width="1510" height="1670" as="geometry" />
        </mxCell>
        <mxCell id="ZtMZNj4k6sN_AE68zlNE-73" value="" style="endArrow=none;dashed=1;html=1;rounded=0;entryX=0.5;entryY=1;entryDx=0;entryDy=0;fillColor=#dae8fc;strokeColor=#6c8ebf;exitX=0.603;exitY=1.001;exitDx=0;exitDy=0;exitPerimeter=0;" parent="1" source="ZtMZNj4k6sN_AE68zlNE-77" target="PTGc_cxeWPIYV6TBkI2--3" edge="1">
          <mxGeometry width="50" height="50" relative="1" as="geometry">
            <mxPoint x="700" y="1614.1666666666667" as="sourcePoint" />
            <mxPoint x="500" y="490" as="targetPoint" />
            <Array as="points" />
          </mxGeometry>
        </mxCell>
        <mxCell id="ZtMZNj4k6sN_AE68zlNE-76" value="" style="endArrow=none;dashed=1;html=1;rounded=0;entryX=0.5;entryY=1;entryDx=0;entryDy=0;fillColor=#dae8fc;strokeColor=#6c8ebf;exitX=0.837;exitY=1.001;exitDx=0;exitDy=0;exitPerimeter=0;" parent="1" source="ZtMZNj4k6sN_AE68zlNE-77" target="PTGc_cxeWPIYV6TBkI2--5" edge="1">
          <mxGeometry width="50" height="50" relative="1" as="geometry">
            <mxPoint x="1029.6" y="1614.1666666666667" as="sourcePoint" />
            <mxPoint x="1029.6" y="100" as="targetPoint" />
            <Array as="points">
              <mxPoint x="1030" y="860" />
            </Array>
          </mxGeometry>
        </mxCell>
        <mxCell id="ZtMZNj4k6sN_AE68zlNE-72" value="" style="endArrow=none;dashed=1;html=1;rounded=0;entryX=0.5;entryY=1;entryDx=0;entryDy=0;fillColor=#dae8fc;strokeColor=#6c8ebf;exitX=0.513;exitY=0.624;exitDx=0;exitDy=0;exitPerimeter=0;" parent="1" source="ZtMZNj4k6sN_AE68zlNE-69" target="ZtMZNj4k6sN_AE68zlNE-16" edge="1">
          <mxGeometry width="50" height="50" relative="1" as="geometry">
            <mxPoint x="300" y="1387" as="sourcePoint" />
            <mxPoint x="300" y="250" as="targetPoint" />
            <Array as="points" />
          </mxGeometry>
        </mxCell>
        <mxCell id="ZtMZNj4k6sN_AE68zlNE-71" value="" style="endArrow=none;dashed=1;html=1;rounded=0;entryX=0.5;entryY=1;entryDx=0;entryDy=0;fillColor=#dae8fc;strokeColor=#6c8ebf;exitX=0.495;exitY=0.566;exitDx=0;exitDy=0;exitPerimeter=0;" parent="1" source="ZtMZNj4k6sN_AE68zlNE-53" target="ZtMZNj4k6sN_AE68zlNE-3" edge="1">
          <mxGeometry width="50" height="50" relative="1" as="geometry">
            <mxPoint x="80" y="1573.2432432432433" as="sourcePoint" />
            <mxPoint x="80.49999999999999" y="109.99" as="targetPoint" />
            <Array as="points" />
          </mxGeometry>
        </mxCell>
        <mxCell id="PTGc_cxeWPIYV6TBkI2--70" value="" style="endArrow=none;dashed=1;html=1;rounded=0;entryX=0.5;entryY=1;entryDx=0;entryDy=0;fillColor=#dae8fc;strokeColor=#6c8ebf;" parent="1" edge="1">
          <mxGeometry width="50" height="50" relative="1" as="geometry">
            <mxPoint x="70" y="1563.2432432432433" as="sourcePoint" />
            <mxPoint x="70.49999999999999" y="99.99" as="targetPoint" />
            <Array as="points" />
          </mxGeometry>
        </mxCell>
        <mxCell id="PTGc_cxeWPIYV6TBkI2--2" value="App" style="ellipse;whiteSpace=wrap;html=1;aspect=fixed;fillColor=#fff2cc;strokeColor=#d6b656;" parent="1" vertex="1">
          <mxGeometry x="30" y="20" width="80" height="80" as="geometry" />
        </mxCell>
        <mxCell id="PTGc_cxeWPIYV6TBkI2--3" value="&lt;div&gt;API&lt;/div&gt;" style="ellipse;whiteSpace=wrap;html=1;aspect=fixed;fillColor=#fff2cc;strokeColor=#d6b656;" parent="1" vertex="1">
          <mxGeometry x="660" y="20" width="80" height="80" as="geometry" />
        </mxCell>
        <mxCell id="PTGc_cxeWPIYV6TBkI2--5" value="Neo4j" style="ellipse;whiteSpace=wrap;html=1;aspect=fixed;fillColor=#fff2cc;strokeColor=#d6b656;" parent="1" vertex="1">
          <mxGeometry x="985" y="20" width="80" height="80" as="geometry" />
        </mxCell>
        <mxCell id="PTGc_cxeWPIYV6TBkI2--6" value="" style="endArrow=classic;html=1;rounded=0;fillColor=#dae8fc;strokeColor=#6c8ebf;entryX=0;entryY=0.5;entryDx=0;entryDy=0;" parent="1" target="ZtMZNj4k6sN_AE68zlNE-3" edge="1">
          <mxGeometry width="50" height="50" relative="1" as="geometry">
            <mxPoint x="75" y="250" as="sourcePoint" />
            <mxPoint x="200.54054054054055" y="250" as="targetPoint" />
          </mxGeometry>
        </mxCell>
        <mxCell id="PTGc_cxeWPIYV6TBkI2--19" value="Loop" style="shape=umlFrame;whiteSpace=wrap;html=1;pointerEvents=0;fillColor=#dae8fc;strokeColor=#6c8ebf;" parent="1" vertex="1">
          <mxGeometry x="-50" y="200" width="1220" height="1320" as="geometry" />
        </mxCell>
        <mxCell id="PTGc_cxeWPIYV6TBkI2--29" value="" style="html=1;points=[[0,0,0,0,5],[0,1,0,0,-5],[1,0,0,0,5],[1,1,0,0,-5]];perimeter=orthogonalPerimeter;outlineConnect=0;targetShapes=umlLifeline;portConstraint=eastwest;newEdgeStyle={&quot;curved&quot;:0,&quot;rounded&quot;:0};fillColor=#dae8fc;strokeColor=#6c8ebf;" parent="1" vertex="1">
          <mxGeometry x="65" y="140" width="10" height="350" as="geometry" />
        </mxCell>
        <mxCell id="ZtMZNj4k6sN_AE68zlNE-3" value="AddHadithPage" style="ellipse;whiteSpace=wrap;html=1;aspect=fixed;fillColor=#fff2cc;strokeColor=#d6b656;" parent="1" vertex="1">
          <mxGeometry x="250" y="210" width="80" height="80" as="geometry" />
        </mxCell>
        <mxCell id="ZtMZNj4k6sN_AE68zlNE-4" value="add()" style="text;html=1;fillColor=none;align=center;verticalAlign=middle;whiteSpace=wrap;rounded=0;" parent="1" vertex="1">
          <mxGeometry x="145" y="400" width="60" height="30" as="geometry" />
        </mxCell>
        <mxCell id="ZtMZNj4k6sN_AE68zlNE-10" value="" style="endArrow=classic;html=1;rounded=0;fillColor=#dae8fc;strokeColor=#6c8ebf;exitX=1.1;exitY=0.555;exitDx=0;exitDy=0;exitPerimeter=0;dashed=1;dashPattern=8 8;" parent="1" edge="1">
          <mxGeometry width="50" height="50" relative="1" as="geometry">
            <mxPoint x="76" y="340.95000000000005" as="sourcePoint" />
            <mxPoint x="285" y="340.95000000000005" as="targetPoint" />
          </mxGeometry>
        </mxCell>
        <mxCell id="ZtMZNj4k6sN_AE68zlNE-11" value="User adds the necessary details" style="text;html=1;fillColor=none;align=center;verticalAlign=middle;whiteSpace=wrap;rounded=0;" parent="1" vertex="1">
          <mxGeometry x="80" y="320" width="190" height="30" as="geometry" />
        </mxCell>
        <mxCell id="ZtMZNj4k6sN_AE68zlNE-12" value="" style="endArrow=classic;html=1;rounded=0;fillColor=#dae8fc;strokeColor=#6c8ebf;dashed=1;dashPattern=8 8;" parent="1" edge="1">
          <mxGeometry width="50" height="50" relative="1" as="geometry">
            <mxPoint x="285" y="389.98" as="sourcePoint" />
            <mxPoint x="75" y="389.98" as="targetPoint" />
          </mxGeometry>
        </mxCell>
        <mxCell id="ZtMZNj4k6sN_AE68zlNE-13" value="Show Valid/ Invalid Message" style="text;html=1;fillColor=none;align=center;verticalAlign=middle;whiteSpace=wrap;rounded=0;" parent="1" vertex="1">
          <mxGeometry x="90" y="360" width="190" height="30" as="geometry" />
        </mxCell>
        <mxCell id="ZtMZNj4k6sN_AE68zlNE-14" value="" style="endArrow=classic;html=1;rounded=0;fillColor=#dae8fc;strokeColor=#6c8ebf;entryX=0.187;entryY=0.545;entryDx=0;entryDy=0;entryPerimeter=0;" parent="1" edge="1">
          <mxGeometry width="50" height="50" relative="1" as="geometry">
            <mxPoint x="75" y="426.70000000000005" as="sourcePoint" />
            <mxPoint x="286.8699999999999" y="426.70000000000005" as="targetPoint" />
          </mxGeometry>
        </mxCell>
        <mxCell id="ZtMZNj4k6sN_AE68zlNE-15" value="add(type=&quot;Hadith&quot;)" style="text;html=1;fillColor=none;align=center;verticalAlign=middle;whiteSpace=wrap;rounded=0;" parent="1" vertex="1">
          <mxGeometry x="145" y="220" width="60" height="30" as="geometry" />
        </mxCell>
        <mxCell id="ZtMZNj4k6sN_AE68zlNE-16" value="Hadith" style="ellipse;whiteSpace=wrap;html=1;aspect=fixed;fillColor=#fff2cc;strokeColor=#d6b656;" parent="1" vertex="1">
          <mxGeometry x="450" y="400" width="80" height="80" as="geometry" />
        </mxCell>
        <mxCell id="ZtMZNj4k6sN_AE68zlNE-17" value="createHadith(details)" style="text;html=1;fillColor=none;align=center;verticalAlign=middle;whiteSpace=wrap;rounded=0;" parent="1" vertex="1">
          <mxGeometry x="340" y="410" width="60" height="30" as="geometry" />
        </mxCell>
        <mxCell id="ZtMZNj4k6sN_AE68zlNE-18" value="" style="endArrow=classic;html=1;rounded=0;fillColor=#dae8fc;strokeColor=#6c8ebf;entryX=0;entryY=0.5;entryDx=0;entryDy=0;" parent="1" target="ZtMZNj4k6sN_AE68zlNE-16" edge="1">
          <mxGeometry width="50" height="50" relative="1" as="geometry">
            <mxPoint x="295" y="440" as="sourcePoint" />
            <mxPoint x="507" y="437" as="targetPoint" />
          </mxGeometry>
        </mxCell>
        <mxCell id="ZtMZNj4k6sN_AE68zlNE-19" value="" style="html=1;points=[[0,0,0,0,5],[0,1,0,0,-5],[1,0,0,0,5],[1,1,0,0,-5]];perimeter=orthogonalPerimeter;outlineConnect=0;targetShapes=umlLifeline;portConstraint=eastwest;newEdgeStyle={&quot;curved&quot;:0,&quot;rounded&quot;:0};fillColor=#dae8fc;strokeColor=#6c8ebf;" parent="1" vertex="1">
          <mxGeometry x="485" y="500" width="10" height="100" as="geometry" />
        </mxCell>
        <mxCell id="ZtMZNj4k6sN_AE68zlNE-20" value="" style="html=1;points=[[0,0,0,0,5],[0,1,0,0,-5],[1,0,0,0,5],[1,1,0,0,-5]];perimeter=orthogonalPerimeter;outlineConnect=0;targetShapes=umlLifeline;portConstraint=eastwest;newEdgeStyle={&quot;curved&quot;:0,&quot;rounded&quot;:0};fillColor=#dae8fc;strokeColor=#6c8ebf;" parent="1" vertex="1">
          <mxGeometry x="695" y="530" width="10" height="240" as="geometry" />
        </mxCell>
        <mxCell id="ZtMZNj4k6sN_AE68zlNE-21" value="addNewHadith(hadith)" style="text;html=1;fillColor=none;align=center;verticalAlign=middle;whiteSpace=wrap;rounded=0;" parent="1" vertex="1">
          <mxGeometry x="560" y="530" width="60" height="30" as="geometry" />
        </mxCell>
        <mxCell id="ZtMZNj4k6sN_AE68zlNE-22" value="" style="endArrow=classic;html=1;rounded=0;fillColor=#dae8fc;strokeColor=#6c8ebf;" parent="1" target="ZtMZNj4k6sN_AE68zlNE-20" edge="1">
          <mxGeometry width="50" height="50" relative="1" as="geometry">
            <mxPoint x="495" y="558.89" as="sourcePoint" />
            <mxPoint x="650" y="558.89" as="targetPoint" />
          </mxGeometry>
        </mxCell>
        <mxCell id="ZtMZNj4k6sN_AE68zlNE-23" value="" style="html=1;points=[[0,0,0,0,5],[0,1,0,0,-5],[1,0,0,0,5],[1,1,0,0,-5]];perimeter=orthogonalPerimeter;outlineConnect=0;targetShapes=umlLifeline;portConstraint=eastwest;newEdgeStyle={&quot;curved&quot;:0,&quot;rounded&quot;:0};fillColor=#dae8fc;strokeColor=#6c8ebf;" parent="1" vertex="1">
          <mxGeometry x="1025" y="614.86" width="10" height="150.14" as="geometry" />
        </mxCell>
        <mxCell id="ZtMZNj4k6sN_AE68zlNE-24" value="addNewHadithNode(hadith)" style="text;html=1;fillColor=none;align=center;verticalAlign=middle;whiteSpace=wrap;rounded=0;" parent="1" vertex="1">
          <mxGeometry x="825" y="615" width="60" height="30" as="geometry" />
        </mxCell>
        <mxCell id="ZtMZNj4k6sN_AE68zlNE-25" value="" style="endArrow=classic;html=1;rounded=0;fillColor=#dae8fc;strokeColor=#6c8ebf;entryX=-0.225;entryY=0.187;entryDx=0;entryDy=0;entryPerimeter=0;" parent="1" target="ZtMZNj4k6sN_AE68zlNE-23" edge="1">
          <mxGeometry width="50" height="50" relative="1" as="geometry">
            <mxPoint x="710" y="642.9361799999999" as="sourcePoint" />
            <mxPoint x="985" y="695" as="targetPoint" />
          </mxGeometry>
        </mxCell>
        <mxCell id="ZtMZNj4k6sN_AE68zlNE-28" value="" style="endArrow=classic;html=1;rounded=0;fillColor=#dae8fc;strokeColor=#6c8ebf;dashed=1;dashPattern=8 8;entryX=0.956;entryY=0.829;entryDx=0;entryDy=0;entryPerimeter=0;" parent="1" edge="1">
          <mxGeometry width="50" height="50" relative="1" as="geometry">
            <mxPoint x="1025" y="705" as="sourcePoint" />
            <mxPoint x="709.5600000000004" y="705" as="targetPoint" />
          </mxGeometry>
        </mxCell>
        <mxCell id="ZtMZNj4k6sN_AE68zlNE-29" value="Send Success/Failure Message" style="text;html=1;fillColor=none;align=center;verticalAlign=middle;whiteSpace=wrap;rounded=0;" parent="1" vertex="1">
          <mxGeometry x="775" y="674.9300000000001" width="190" height="30" as="geometry" />
        </mxCell>
        <mxCell id="ZtMZNj4k6sN_AE68zlNE-30" value="" style="html=1;points=[[0,0,0,0,5],[0,1,0,0,-5],[1,0,0,0,5],[1,1,0,0,-5]];perimeter=orthogonalPerimeter;outlineConnect=0;targetShapes=umlLifeline;portConstraint=eastwest;newEdgeStyle={&quot;curved&quot;:0,&quot;rounded&quot;:0};fillColor=#dae8fc;strokeColor=#6c8ebf;" parent="1" vertex="1">
          <mxGeometry x="285" y="695" width="10" height="60" as="geometry" />
        </mxCell>
        <mxCell id="ZtMZNj4k6sN_AE68zlNE-31" value="" style="endArrow=classic;html=1;rounded=0;fillColor=#dae8fc;strokeColor=#6c8ebf;dashed=1;dashPattern=8 8;entryX=1.062;entryY=0.319;entryDx=0;entryDy=0;entryPerimeter=0;" parent="1" source="ZtMZNj4k6sN_AE68zlNE-20" target="ZtMZNj4k6sN_AE68zlNE-30" edge="1">
          <mxGeometry width="50" height="50" relative="1" as="geometry">
            <mxPoint x="700" y="714.1399999999999" as="sourcePoint" />
            <mxPoint x="305" y="715" as="targetPoint" />
          </mxGeometry>
        </mxCell>
        <mxCell id="ZtMZNj4k6sN_AE68zlNE-32" value="Send Success/Failure Message" style="text;html=1;fillColor=none;align=center;verticalAlign=middle;whiteSpace=wrap;rounded=0;" parent="1" vertex="1">
          <mxGeometry x="415" y="685.0000000000001" width="190" height="30" as="geometry" />
        </mxCell>
        <mxCell id="ZtMZNj4k6sN_AE68zlNE-33" value="" style="html=1;points=[[0,0,0,0,5],[0,1,0,0,-5],[1,0,0,0,5],[1,1,0,0,-5]];perimeter=orthogonalPerimeter;outlineConnect=0;targetShapes=umlLifeline;portConstraint=eastwest;newEdgeStyle={&quot;curved&quot;:0,&quot;rounded&quot;:0};fillColor=#dae8fc;strokeColor=#6c8ebf;" parent="1" vertex="1">
          <mxGeometry x="65" y="907.5" width="10" height="150" as="geometry" />
        </mxCell>
        <mxCell id="ZtMZNj4k6sN_AE68zlNE-34" value="" style="endArrow=classic;html=1;rounded=0;fillColor=#dae8fc;strokeColor=#6c8ebf;dashed=1;dashPattern=8 8;entryX=0.956;entryY=0.829;entryDx=0;entryDy=0;entryPerimeter=0;" parent="1" source="ZtMZNj4k6sN_AE68zlNE-30" edge="1">
          <mxGeometry width="50" height="50" relative="1" as="geometry">
            <mxPoint x="255" y="735" as="sourcePoint" />
            <mxPoint x="85.0000000000004" y="723.57" as="targetPoint" />
          </mxGeometry>
        </mxCell>
        <mxCell id="ZtMZNj4k6sN_AE68zlNE-35" value="Send Success/Failure Message" style="text;html=1;fillColor=none;align=center;verticalAlign=middle;whiteSpace=wrap;rounded=0;" parent="1" vertex="1">
          <mxGeometry x="90" y="695.0000000000001" width="190" height="30" as="geometry" />
        </mxCell>
        <mxCell id="ZtMZNj4k6sN_AE68zlNE-36" value="" style="html=1;points=[[0,0,0,0,5],[0,1,0,0,-5],[1,0,0,0,5],[1,1,0,0,-5]];perimeter=orthogonalPerimeter;outlineConnect=0;targetShapes=umlLifeline;portConstraint=eastwest;newEdgeStyle={&quot;curved&quot;:0,&quot;rounded&quot;:0};fillColor=#dae8fc;strokeColor=#6c8ebf;" parent="1" vertex="1">
          <mxGeometry x="65" y="685" width="10" height="60" as="geometry" />
        </mxCell>
        <mxCell id="ZtMZNj4k6sN_AE68zlNE-37" value="" style="html=1;points=[[0,0,0,0,5],[0,1,0,0,-5],[1,0,0,0,5],[1,1,0,0,-5]];perimeter=orthogonalPerimeter;outlineConnect=0;targetShapes=umlLifeline;portConstraint=eastwest;newEdgeStyle={&quot;curved&quot;:0,&quot;rounded&quot;:0};fillColor=#dae8fc;strokeColor=#6c8ebf;" parent="1" vertex="1">
          <mxGeometry x="285" y="895" width="10" height="165" as="geometry" />
        </mxCell>
        <mxCell id="ZtMZNj4k6sN_AE68zlNE-38" value="" style="endArrow=classic;html=1;rounded=0;fillColor=#dae8fc;strokeColor=#6c8ebf;dashed=1;dashPattern=8 8;entryX=0.956;entryY=0.829;entryDx=0;entryDy=0;entryPerimeter=0;" parent="1" edge="1">
          <mxGeometry width="50" height="50" relative="1" as="geometry">
            <mxPoint x="287.5" y="929" as="sourcePoint" />
            <mxPoint x="82.5000000000004" y="928.57" as="targetPoint" />
          </mxGeometry>
        </mxCell>
        <mxCell id="ZtMZNj4k6sN_AE68zlNE-39" value="Ask the User to enter/ update the details" style="text;html=1;fillColor=none;align=center;verticalAlign=middle;whiteSpace=wrap;rounded=0;" parent="1" vertex="1">
          <mxGeometry x="87.5" y="900.0000000000001" width="190" height="30" as="geometry" />
        </mxCell>
        <mxCell id="ZtMZNj4k6sN_AE68zlNE-40" value="" style="endArrow=classic;html=1;rounded=0;fillColor=#dae8fc;strokeColor=#6c8ebf;exitX=1.1;exitY=0.555;exitDx=0;exitDy=0;exitPerimeter=0;dashed=1;dashPattern=8 8;" parent="1" target="ZtMZNj4k6sN_AE68zlNE-37" edge="1">
          <mxGeometry width="50" height="50" relative="1" as="geometry">
            <mxPoint x="83" y="997.41" as="sourcePoint" />
            <mxPoint x="295" y="995" as="targetPoint" />
          </mxGeometry>
        </mxCell>
        <mxCell id="ZtMZNj4k6sN_AE68zlNE-41" value="User adds/updates the necessary details" style="text;html=1;fillColor=none;align=center;verticalAlign=middle;whiteSpace=wrap;rounded=0;" parent="1" vertex="1">
          <mxGeometry x="87.5" y="967.5" width="190" height="30" as="geometry" />
        </mxCell>
        <mxCell id="ZtMZNj4k6sN_AE68zlNE-42" value="" style="html=1;points=[[0,0,0,0,5],[0,1,0,0,-5],[1,0,0,0,5],[1,1,0,0,-5]];perimeter=orthogonalPerimeter;outlineConnect=0;targetShapes=umlLifeline;portConstraint=eastwest;newEdgeStyle={&quot;curved&quot;:0,&quot;rounded&quot;:0};fillColor=#dae8fc;strokeColor=#6c8ebf;" parent="1" vertex="1">
          <mxGeometry x="485" y="997.5" width="10" height="100" as="geometry" />
        </mxCell>
        <mxCell id="ZtMZNj4k6sN_AE68zlNE-43" value="updateHadith(details)" style="text;html=1;fillColor=none;align=center;verticalAlign=middle;whiteSpace=wrap;rounded=0;" parent="1" vertex="1">
          <mxGeometry x="370" y="1005" width="60" height="30" as="geometry" />
        </mxCell>
        <mxCell id="ZtMZNj4k6sN_AE68zlNE-44" value="" style="endArrow=classic;html=1;rounded=0;fillColor=#dae8fc;strokeColor=#6c8ebf;" parent="1" target="ZtMZNj4k6sN_AE68zlNE-42" edge="1">
          <mxGeometry width="50" height="50" relative="1" as="geometry">
            <mxPoint x="300" y="1035" as="sourcePoint" />
            <mxPoint x="455" y="1035" as="targetPoint" />
          </mxGeometry>
        </mxCell>
        <mxCell id="ZtMZNj4k6sN_AE68zlNE-45" value="Loop" style="shape=umlFrame;whiteSpace=wrap;html=1;pointerEvents=0;fillColor=#dae8fc;strokeColor=#6c8ebf;" parent="1" vertex="1">
          <mxGeometry x="10" y="570" width="1130" height="910" as="geometry" />
        </mxCell>
        <mxCell id="ZtMZNj4k6sN_AE68zlNE-46" value="Alt" style="shape=umlFrame;whiteSpace=wrap;html=1;pointerEvents=0;fillColor=#dae8fc;strokeColor=#6c8ebf;width=90;height=30;" parent="1" vertex="1">
          <mxGeometry x="40" y="790" width="490" height="320" as="geometry" />
        </mxCell>
        <mxCell id="ZtMZNj4k6sN_AE68zlNE-49" value="" style="group" parent="1" vertex="1" connectable="0">
          <mxGeometry x="40" y="1110" width="80" height="30" as="geometry" />
        </mxCell>
        <mxCell id="ZtMZNj4k6sN_AE68zlNE-47" value="" style="rounded=0;whiteSpace=wrap;html=1;fillColor=#dae8fc;strokeColor=#6c8ebf;" parent="ZtMZNj4k6sN_AE68zlNE-49" vertex="1">
          <mxGeometry width="80" height="30" as="geometry" />
        </mxCell>
        <mxCell id="ZtMZNj4k6sN_AE68zlNE-48" value="ELSE" style="text;html=1;strokeColor=none;fillColor=none;align=center;verticalAlign=middle;whiteSpace=wrap;rounded=0;" parent="ZtMZNj4k6sN_AE68zlNE-49" vertex="1">
          <mxGeometry x="10" width="60" height="30" as="geometry" />
        </mxCell>
        <mxCell id="ZtMZNj4k6sN_AE68zlNE-52" value="" style="shape=umlFrame;whiteSpace=wrap;html=1;pointerEvents=0;fillColor=#dae8fc;strokeColor=#6c8ebf;width=10;height=15;" parent="1" vertex="1">
          <mxGeometry x="40" y="1110" width="490" height="320" as="geometry" />
        </mxCell>
        <mxCell id="ZtMZNj4k6sN_AE68zlNE-53" value="" style="shape=umlDestroy;whiteSpace=wrap;html=1;strokeWidth=3;targetShapes=umlLifeline;fillColor=#e51400;strokeColor=#B20000;fontColor=#ffffff;" parent="1" vertex="1">
          <mxGeometry x="275" y="1360" width="30" height="30" as="geometry" />
        </mxCell>
        <mxCell id="ZtMZNj4k6sN_AE68zlNE-54" value="" style="html=1;points=[[0,0,0,0,5],[0,1,0,0,-5],[1,0,0,0,5],[1,1,0,0,-5]];perimeter=orthogonalPerimeter;outlineConnect=0;targetShapes=umlLifeline;portConstraint=eastwest;newEdgeStyle={&quot;curved&quot;:0,&quot;rounded&quot;:0};fillColor=#dae8fc;strokeColor=#6c8ebf;" parent="1" vertex="1">
          <mxGeometry x="485" y="1190" width="10" height="80" as="geometry" />
        </mxCell>
        <mxCell id="ZtMZNj4k6sN_AE68zlNE-55" value="" style="html=1;points=[[0,0,0,0,5],[0,1,0,0,-5],[1,0,0,0,5],[1,1,0,0,-5]];perimeter=orthogonalPerimeter;outlineConnect=0;targetShapes=umlLifeline;portConstraint=eastwest;newEdgeStyle={&quot;curved&quot;:0,&quot;rounded&quot;:0};fillColor=#dae8fc;strokeColor=#6c8ebf;" parent="1" vertex="1">
          <mxGeometry x="65" y="1240" width="10" height="170" as="geometry" />
        </mxCell>
        <mxCell id="ZtMZNj4k6sN_AE68zlNE-56" value="" style="endArrow=classic;html=1;rounded=0;fillColor=#dae8fc;strokeColor=#6c8ebf;" parent="1" source="ZtMZNj4k6sN_AE68zlNE-54" target="ZtMZNj4k6sN_AE68zlNE-62" edge="1">
          <mxGeometry width="50" height="50" relative="1" as="geometry">
            <mxPoint x="375" y="1209" as="sourcePoint" />
            <mxPoint x="170.0000000000004" y="1208.5700000000002" as="targetPoint" />
          </mxGeometry>
        </mxCell>
        <mxCell id="ZtMZNj4k6sN_AE68zlNE-57" value="showDetails()" style="text;html=1;fillColor=none;align=center;verticalAlign=middle;whiteSpace=wrap;rounded=0;" parent="1" vertex="1">
          <mxGeometry x="295" y="1200" width="190" height="30" as="geometry" />
        </mxCell>
        <mxCell id="ZtMZNj4k6sN_AE68zlNE-58" value="" style="group" parent="1" vertex="1" connectable="0">
          <mxGeometry x="40" y="820" width="80" height="30" as="geometry" />
        </mxCell>
        <mxCell id="ZtMZNj4k6sN_AE68zlNE-59" value="" style="rounded=0;whiteSpace=wrap;html=1;fillColor=#dae8fc;strokeColor=#6c8ebf;" parent="ZtMZNj4k6sN_AE68zlNE-58" vertex="1">
          <mxGeometry width="80" height="30" as="geometry" />
        </mxCell>
        <mxCell id="ZtMZNj4k6sN_AE68zlNE-60" value="IF &quot;Failure&quot;" style="text;html=1;strokeColor=none;fillColor=none;align=center;verticalAlign=middle;whiteSpace=wrap;rounded=0;" parent="ZtMZNj4k6sN_AE68zlNE-58" vertex="1">
          <mxGeometry x="10" width="60" height="30" as="geometry" />
        </mxCell>
        <mxCell id="ZtMZNj4k6sN_AE68zlNE-62" value="" style="html=1;points=[[0,0,0,0,5],[0,1,0,0,-5],[1,0,0,0,5],[1,1,0,0,-5]];perimeter=orthogonalPerimeter;outlineConnect=0;targetShapes=umlLifeline;portConstraint=eastwest;newEdgeStyle={&quot;curved&quot;:0,&quot;rounded&quot;:0};fillColor=#dae8fc;strokeColor=#6c8ebf;" parent="1" vertex="1">
          <mxGeometry x="285" y="1200" width="10" height="140" as="geometry" />
        </mxCell>
        <mxCell id="ZtMZNj4k6sN_AE68zlNE-64" value="" style="endArrow=classic;html=1;rounded=0;fillColor=#dae8fc;strokeColor=#6c8ebf;dashed=1;dashPattern=8 8;entryX=0.956;entryY=0.829;entryDx=0;entryDy=0;entryPerimeter=0;" parent="1" edge="1">
          <mxGeometry width="50" height="50" relative="1" as="geometry">
            <mxPoint x="280" y="1279" as="sourcePoint" />
            <mxPoint x="75.0000000000004" y="1278.5700000000002" as="targetPoint" />
          </mxGeometry>
        </mxCell>
        <mxCell id="ZtMZNj4k6sN_AE68zlNE-65" value="show the Successfully Entered Details" style="text;html=1;fillColor=none;align=center;verticalAlign=middle;whiteSpace=wrap;rounded=0;" parent="1" vertex="1">
          <mxGeometry x="80" y="1250" width="190" height="30" as="geometry" />
        </mxCell>
        <mxCell id="ZtMZNj4k6sN_AE68zlNE-66" value="" style="endArrow=classic;html=1;rounded=0;fillColor=#dae8fc;strokeColor=#6c8ebf;dashed=1;dashPattern=8 8;" parent="1" source="ZtMZNj4k6sN_AE68zlNE-55" target="ZtMZNj4k6sN_AE68zlNE-53" edge="1">
          <mxGeometry width="50" height="50" relative="1" as="geometry">
            <mxPoint x="315" y="1400" as="sourcePoint" />
            <mxPoint x="110.0000000000004" y="1398.5700000000002" as="targetPoint" />
          </mxGeometry>
        </mxCell>
        <mxCell id="ZtMZNj4k6sN_AE68zlNE-68" value="User presses OK" style="text;html=1;fillColor=none;align=center;verticalAlign=middle;whiteSpace=wrap;rounded=0;" parent="1" vertex="1">
          <mxGeometry x="80" y="1340" width="190" height="30" as="geometry" />
        </mxCell>
        <mxCell id="ZtMZNj4k6sN_AE68zlNE-69" value="" style="shape=umlDestroy;whiteSpace=wrap;html=1;strokeWidth=3;targetShapes=umlLifeline;fillColor=#e51400;strokeColor=#B20000;fontColor=#ffffff;" parent="1" vertex="1">
          <mxGeometry x="475" y="1355" width="30" height="30" as="geometry" />
        </mxCell>
        <mxCell id="ZtMZNj4k6sN_AE68zlNE-70" value="" style="endArrow=classic;html=1;rounded=0;fillColor=#dae8fc;strokeColor=#6c8ebf;dashed=1;dashPattern=8 8;" parent="1" target="ZtMZNj4k6sN_AE68zlNE-69" edge="1">
          <mxGeometry width="50" height="50" relative="1" as="geometry">
            <mxPoint x="305" y="1372" as="sourcePoint" />
            <mxPoint x="340.0000000000004" y="1398.5700000000002" as="targetPoint" />
          </mxGeometry>
        </mxCell>
        <mxCell id="ZtMZNj4k6sN_AE68zlNE-77" value="Add Verse" style="shape=umlFrame;whiteSpace=wrap;html=1;pointerEvents=0;fillColor=#dae8fc;strokeColor=#6c8ebf;width=110;height=70;" parent="1" vertex="1">
          <mxGeometry x="-150" y="-30" width="1410" height="1590" as="geometry" />
        </mxCell>
        <mxCell id="ZtMZNj4k6sN_AE68zlNE-78" value="dispatch" style="html=1;verticalAlign=bottom;startArrow=oval;startFill=1;endArrow=block;startSize=8;curved=0;rounded=0;" parent="1" edge="1">
          <mxGeometry width="60" relative="1" as="geometry">
            <mxPoint y="180" as="sourcePoint" />
            <mxPoint x="60" y="180" as="targetPoint" />
          </mxGeometry>
        </mxCell>
        <mxCell id="ZtMZNj4k6sN_AE68zlNE-80" value="" style="html=1;points=[[0,0,0,0,5],[0,1,0,0,-5],[1,0,0,0,5],[1,1,0,0,-5]];perimeter=orthogonalPerimeter;outlineConnect=0;targetShapes=umlLifeline;portConstraint=eastwest;newEdgeStyle={&quot;curved&quot;:0,&quot;rounded&quot;:0};fillColor=#dae8fc;strokeColor=#6c8ebf;" parent="1" vertex="1">
          <mxGeometry x="285" y="320" width="10" height="170" as="geometry" />
        </mxCell>
      </root>
    </mxGraphModel>
  </diagram>
</mxfile>
